<svg width="1440" height="710" viewBox="0 0 1440 710" fill="none" xmlns="http://www.w3.org/2000/svg">
<path d="M-67.6699 3C267.855 39.1732 733.131 450.314 690.194 593.28C662.038 687.002 332.168 684.897 242.045 701.8C119.145 724.819 351.853 638.645 399.249 539.021C455.561 420.636 370.084 109.415 641.249 164.135C877.9 211.917 929.143 366.672 1098.78 363.088C1252.21 359.799 1371.73 229.904 1448.39 121.385" stroke="#494949" stroke-opacity="0.15" stroke-width="5" stroke-miterlimit="10"/>
<path d="M-67.6934 12.4873C253.753 52.8204 701.362 450.989 665.581 587.97C642.117 677.712 329.704 674.72 246.316 689.912C130.712 710.942 353.496 628.122 400.493 532.543C456.805 417.939 379.094 120.103 640.874 172.866C874.404 219.809 921.541 378.165 1092.71 378.396C1246.41 378.198 1370.65 251.115 1450.69 144.914" stroke="#494949" stroke-opacity="0.15" stroke-width="5" stroke-miterlimit="10"/>
<path d="M-67.7207 21.9247C239.648 66.4177 669.589 451.58 640.987 582.609C622.217 668.372 327.236 664.492 250.582 677.975C142.252 696.949 355.134 617.549 401.732 525.998C458.044 415.176 388.124 130.757 640.495 181.547C870.904 227.668 913.935 390.036 1086.65 393.653C1240.61 396.942 1369.57 272.292 1453 168.393" stroke="#494949" stroke-opacity="0.15" stroke-width="5" stroke-miterlimit="10"/>
<path d="M-67.7207 31.4287C225.57 80.0981 637.843 452.189 616.398 577.315C602.32 659.05 324.773 654.331 254.852 666.104C153.749 682.908 356.8 606.977 402.976 519.471C459.452 412.415 397.157 141.412 640.143 190.213C867.408 235.528 906.287 401.743 1080.55 408.896C1234.77 415.292 1368.47 293.487 1455.3 191.857" stroke="#494949" stroke-opacity="0.15" stroke-width="5" stroke-miterlimit="10"/>
<path d="M-67.7432 40.8995C211.611 93.7288 606.075 452.715 591.809 571.988C582.424 649.678 322.334 644.12 259.147 654.101C165.294 668.899 358.491 596.421 404.22 512.943C460.79 409.669 406.191 152.083 639.768 198.894C863.913 243.387 898.662 413.269 1074.52 424.154C1228.95 433.707 1367.43 314.665 1457.63 215.336" stroke="#494949" stroke-opacity="0.15" stroke-width="5" stroke-miterlimit="10"/>
<path d="M-67.7656 50.3704C197.557 107.376 574.307 453.208 567.197 566.66C562.505 640.256 319.895 633.91 263.418 642.18C176.886 654.841 360.228 585.849 405.465 506.416C462.152 406.906 415.226 162.77 639.417 207.592C860.394 251.279 891.014 424.878 1068.44 439.429C1223.14 452.123 1366.43 335.843 1459.95 238.833" stroke="#494949" stroke-opacity="0.15" stroke-width="5" stroke-miterlimit="10"/>
<path d="M-67.7656 59.8577C183.502 121.023 542.514 453.455 542.608 561.349C542.608 630.785 317.36 623.666 267.689 630.243C188.43 640.717 361.964 575.293 406.709 499.904C463.537 404.144 424.236 173.409 638.995 216.29C856.851 259.139 883.294 436.453 1062.34 454.704C1217.2 470.489 1365.23 357.086 1462.23 262.329" stroke="#494949" stroke-opacity="0.15" stroke-width="5" stroke-miterlimit="10"/>
<path d="M-67.7891 69.3284C169.425 134.654 510.674 453.701 518.018 556.022C522.711 621.265 315.061 613.406 271.983 618.322C199.974 626.543 363.771 564.737 408.069 493.36C465.085 401.283 433.269 184.376 638.784 224.955C853.379 267.327 875.763 447.979 1056.43 469.946C1211.59 488.822 1364.31 378.264 1464.69 285.792" stroke="#494949" stroke-opacity="0.15" stroke-width="5" stroke-miterlimit="10"/>
<path d="M-67.8115 78.7997C155.371 148.302 478.742 453.85 493.406 550.695C502.651 611.68 312.739 603.13 276.254 606.385C211.566 612.173 365.578 554.181 409.22 486.866C466.4 398.603 442.069 195.096 638.315 233.654C849.766 275.236 868.044 459.489 1050.26 485.222C1205.63 507.156 1363.14 399.475 1466.9 309.289" stroke="#494949" stroke-opacity="0.15" stroke-width="5" stroke-miterlimit="10"/>
<path d="M-67.8115 88.27C141.317 161.932 446.714 453.866 468.817 545.367C482.519 602.044 310.44 592.804 280.524 594.464C223.18 597.638 367.338 543.625 410.464 480.338C467.902 395.841 451.196 205.751 638.057 242.368C846.364 283.161 860.513 470.999 1044.3 500.513C1199.91 525.489 1362.18 420.685 1469.34 332.801" stroke="#494949" stroke-opacity="0.15" stroke-width="5" stroke-miterlimit="10"/>
<path d="M-67.835 97.7407C127.262 175.579 414.499 453.783 444.227 540.04C462.247 592.36 308.328 582.445 284.677 582.543C234.841 582.741 369.145 533.085 411.59 473.81C469.31 393.062 460.089 216.455 637.471 251.049C842.61 291.07 852.629 482.459 1038.01 515.771C1193.86 543.723 1360.87 441.879 1471.4 356.28" stroke="#494949" stroke-opacity="0.15" stroke-width="5" stroke-miterlimit="10"/>
<path d="M-67.8574 107.228C113.209 189.21 382.074 453.603 419.639 534.729C441.812 582.626 305.701 574.734 289.089 570.607C247.137 573.895 371.211 522.546 412.952 467.299C471 390.3 469.264 227.126 637.214 259.747C839.233 298.962 845.122 493.903 1032.05 531.046C1188.15 562.04 1359.91 463.09 1473.84 379.777" stroke="#494949" stroke-opacity="0.15" stroke-width="5" stroke-miterlimit="10"/>
<path d="M-67.8574 116.698C99.1307 202.856 349.32 453.356 395.026 529.402C421.164 572.875 303.308 564.72 293.36 558.685C258.775 560.198 373.299 512.022 414.195 460.771C472.642 387.537 478.274 237.796 636.839 268.396C835.713 306.821 837.496 505.297 1026 546.271C1182.36 580.258 1358.83 484.251 1476.17 403.223" stroke="#494949" stroke-opacity="0.15" stroke-width="5" stroke-miterlimit="10"/>
<path d="M-67.8799 126.17C85.0772 216.488 316.214 453.126 370.437 524.075C400.283 563.142 300.892 554.707 297.701 546.749C270.46 546.469 375.435 501.499 415.51 454.26C474.427 384.775 487.378 248.451 636.558 277.127C832.288 314.747 829.966 516.741 1020.02 561.58C1176.64 598.526 1357.89 505.495 1478.54 426.752" stroke="#494949" stroke-opacity="0.15" stroke-width="5" stroke-miterlimit="10"/>
<path d="M-67.9082 135.64C71.0178 230.134 282.703 452.977 345.843 518.747C379.161 553.457 298.494 544.693 301.896 534.827C282.023 532.739 377.495 491.009 416.679 447.683C476.158 381.914 496.336 259.056 636.107 285.759C828.717 322.573 822.288 528.07 1013.87 576.788C1170.76 616.71 1356.69 526.639 1480.78 450.182" stroke="#494949" stroke-opacity="0.15" stroke-width="5" stroke-miterlimit="10"/>
<path d="M-67.9082 145.111C56.9633 243.765 248.846 453.06 321.23 513.42C357.809 543.888 296.077 534.68 306.19 522.907C293.661 519.027 379.701 480.535 417.922 441.222C478.059 379.365 505.37 269.744 635.732 294.506C825.221 330.482 814.71 539.498 1007.81 592.113C1165.02 634.962 1355.61 547.883 1483.11 473.728" stroke="#494949" stroke-opacity="0.15" stroke-width="5" stroke-miterlimit="10"/>
<path d="M-67.9307 154.582C42.9098 257.412 214.473 453.471 296.642 508.092C336.318 534.482 293.685 524.666 310.461 510.97C305.3 505.297 381.977 470.111 419.167 434.694C480.054 376.718 514.404 280.382 635.381 303.155C821.726 338.292 807.155 550.777 1001.74 607.339C1159.25 653.114 1354.53 569.044 1485.41 497.175" stroke="#494949" stroke-opacity="0.15" stroke-width="5" stroke-miterlimit="10"/>
<path d="M-67.9551 164.069C28.8309 271.043 179.981 454.326 272.051 502.781C314.778 525.258 291.268 514.653 314.731 499.049C316.936 491.584 384.346 459.719 420.316 428.166C482.118 374.153 523.366 291.02 634.911 311.886C818.135 346.168 799.529 562.171 995.588 622.646C1153.4 671.332 1353.38 590.288 1487.64 520.704" stroke="#494949" stroke-opacity="0.15" stroke-width="5" stroke-miterlimit="10"/>
<path d="M-67.9551 173.54C14.7764 284.69 145.443 455.625 247.462 497.454C293.262 516.232 292.253 507.155 319.001 487.129C330.146 478.776 386.787 449.311 421.676 421.655C484.511 371.703 532.517 301.626 634.652 320.584C814.756 353.995 792.091 573.484 989.605 637.921C1147.77 689.518 1352.39 611.482 1490.05 544.2" stroke="#494949" stroke-opacity="0.15" stroke-width="5" stroke-miterlimit="10"/>
<path d="M-67.9775 183.06C0.722905 298.37 111.094 457.417 222.967 492.176C272.029 507.434 288.101 496.007 323.413 475.24C341.128 464.816 389.415 439.182 423.038 415.176C487.116 369.45 541.669 312.296 634.395 329.314C811.402 361.821 784.701 584.845 983.669 653.229C1142.19 707.719 1351.43 632.742 1492.47 567.728" stroke="#494949" stroke-opacity="0.15" stroke-width="5" stroke-miterlimit="10"/>
<path d="M-68 192.482C-13.3306 311.969 77.0734 459.44 198.261 486.8C250.749 498.655 284.629 485.156 327.567 463.271C352.157 450.726 391.857 428.972 424.166 408.617C489.675 367.33 550.656 322.755 633.904 337.915C807.907 369.32 777.241 595.862 977.476 668.406C1136.46 725.642 1350.24 653.838 1494.68 591.127" stroke="#494949" stroke-opacity="0.15" stroke-width="5" stroke-miterlimit="10"/>
<path d="M-68 201.952C-27.3851 325.599 43.474 461.742 173.672 481.472C341.833 507.04 471.491 317.641 633.552 346.645C804.411 377.244 769.639 607.372 971.423 683.713C1130.67 743.991 1349.18 675.098 1497 614.655" stroke="#494949" stroke-opacity="0.15" stroke-width="5" stroke-miterlimit="10"/>
</svg>
