<svg width="18" height="20" viewBox="0 0 18 20" fill="none" xmlns="http://www.w3.org/2000/svg">
<path d="M3.4 3.29273C4.89031 1.83222 6.8968 1.01886 8.98343 1.0294C11.0701 1.03994 13.0682 1.87352 14.5437 3.34901C16.0192 4.8245 16.8528 6.82267 16.8633 8.9093C16.8739 10.9959 16.0605 13.0024 14.6 14.4927L10.414 18.6787C10.0389 19.0537 9.53032 19.2643 9 19.2643C8.46967 19.2643 7.96105 19.0537 7.586 18.6787L3.4 14.4927C1.91488 13.0075 1.08057 10.9931 1.08057 8.89273C1.08057 6.79235 1.91488 4.77799 3.4 3.29273Z" stroke="white" stroke-linejoin="round"/>
<path d="M9 11.8928C10.6569 11.8928 12 10.5497 12 8.89282C12 7.23597 10.6569 5.89282 9 5.89282C7.34315 5.89282 6 7.23597 6 8.89282C6 10.5497 7.34315 11.8928 9 11.8928Z" stroke="white" stroke-linecap="round" stroke-linejoin="round"/>
</svg>
