<svg width="26" height="26" viewBox="0 0 26 26" fill="none" xmlns="http://www.w3.org/2000/svg">
<g clip-path="url(#clip0_736_1188)">
<path d="M12.9568 23.3821H3.23918C2.64316 23.3821 2.15947 22.917 2.15947 22.3439V3.65618C2.15947 3.08308 2.64321 2.61799 3.23918 2.61799H12.9568C13.5539 2.61799 14.0365 2.15393 14.0365 1.57981C14.0365 1.00569 13.5539 0.541527 12.9568 0.541527H3.23918C1.45331 0.541527 0 1.93899 0 3.65618V22.3439C0 24.0611 1.45331 25.4585 3.23918 25.4585H12.9568C13.5539 25.4585 14.0365 24.9944 14.0365 24.4203C14.0365 23.8462 13.5539 23.3821 12.9568 23.3821Z" fill="black"/>
<path d="M25.679 12.2608L19.1142 6.03154C18.691 5.62871 18.0064 5.63394 17.5875 6.04194C17.1685 6.44995 17.1729 7.10713 17.5983 7.50996L22.2897 11.9618H9.71838C9.1213 11.9618 8.63867 12.4258 8.63867 13C8.63867 13.5741 9.1213 14.0382 9.71838 14.0382H22.2897L17.5983 18.49C17.1729 18.8928 17.1697 19.55 17.5875 19.958C17.7991 20.1636 18.0777 20.2674 18.3563 20.2674C18.6305 20.2674 18.9048 20.1677 19.1142 19.9684L25.679 13.7391C25.8842 13.5439 26.0008 13.2781 26.0008 12.9999C26.0008 12.7218 25.8853 12.457 25.679 12.2608Z" fill="black"/>
</g>
<defs>
<clipPath id="clip0_736_1188">
<rect width="26" height="25" fill="white" transform="translate(0 0.5)"/>
</clipPath>
</defs>
</svg>
