<svg width="32" height="33" viewBox="0 0 32 33" fill="none" xmlns="http://www.w3.org/2000/svg">
<path d="M16.0151 13.7934C17.5429 13.7878 18.7597 12.5605 18.7541 11.0294C18.7486 9.49768 17.5291 8.2789 16.0007 8.27759C14.4594 8.27595 13.2285 9.51732 13.2403 11.0628C13.2518 12.5883 14.4823 13.7989 16.0151 13.7934Z" fill="white"/>
<path d="M16 0.532715C7.16342 0.532715 0 7.69646 0 16.5327C0 25.369 7.16342 32.5327 16 32.5327C24.8366 32.5327 32 25.369 32 16.5327C32 7.69646 24.8366 0.532715 16 0.532715ZM16.0229 5.39835C19.1394 5.40686 21.6408 7.95606 21.6248 11.107C21.6091 14.1852 19.0668 16.68 15.9555 16.6696C12.8759 16.6591 10.3503 14.106 10.3687 11.0215C10.386 7.90335 12.9129 5.38984 16.0229 5.39835ZM22.3352 18.8839C21.6461 19.5913 20.8165 20.1033 19.8953 20.4604C19.0245 20.798 18.0703 20.9679 17.1255 21.0811C17.2685 21.2363 17.3357 21.3126 17.4247 21.4016C18.7067 22.6905 19.9948 23.9728 21.2726 25.2652C21.7079 25.7058 21.7986 26.2519 21.559 26.7635C21.2974 27.3233 20.7105 27.6913 20.1346 27.6517C19.7699 27.6265 19.4855 27.4454 19.2331 27.1911C18.2654 26.2175 17.2793 25.2613 16.3319 24.2694C16.0553 23.9806 15.9231 24.0356 15.6792 24.2864C14.7059 25.2888 13.7166 26.2751 12.7218 27.2562C12.2749 27.6969 11.7433 27.7767 11.2247 27.5247C10.6738 27.2582 10.3235 26.6955 10.3503 26.1294C10.3693 25.7477 10.5572 25.4551 10.8198 25.1938C12.089 23.9273 13.3542 22.6567 14.6198 21.3872C14.704 21.3031 14.7819 21.2137 14.904 21.0828C13.1778 20.9024 11.6212 20.4775 10.2885 19.4355C10.1228 19.3058 9.95225 19.1808 9.80166 19.0354C9.21796 18.4753 9.15937 17.8333 9.62062 17.1727C10.0158 16.607 10.6783 16.4558 11.3674 16.7809C11.501 16.8434 11.628 16.9226 11.7498 17.0064C14.2332 18.713 17.645 18.7598 20.1382 17.0827C20.3851 16.8941 20.6492 16.739 20.9553 16.6607C21.5498 16.5075 22.105 16.7265 22.4239 17.247C22.7889 17.8419 22.7847 18.4219 22.3352 18.8839Z" fill="white"/>
</svg>
