<svg width="24" height="24" viewBox="0 0 24 24" fill="none" xmlns="http://www.w3.org/2000/svg">
<path d="M1.37463 9.15277C1.93767 7.05134 3.11129 5.16406 4.74707 3.72961C6.38284 2.29516 8.40728 1.37799 10.5644 1.09407C12.7215 0.81016 14.9143 1.17226 16.8656 2.13458C18.8169 3.0969 20.4389 4.61622 21.5266 6.50039L21.9478 7.45449M21.9478 7.45449C22.2418 7.40593 22.5089 7.25452 22.7017 7.02728C22.8944 6.80004 23.0001 6.51173 23 6.21378V1.00078M21.9478 7.45449C21.8807 7.46539 21.8124 7.47083 21.7429 7.47083H16.5295M1 22.9992V17.7862C1 17.4528 1.13245 17.1331 1.36821 16.8973C1.60397 16.6616 1.92373 16.5292 2.25714 16.5292M2.25714 16.5292H7.47051M2.25714 16.5292L2.47337 17.4996C3.56107 19.3838 5.18313 20.9031 7.1344 21.8654C9.08568 22.8277 11.2785 23.1898 13.4356 22.9059C15.5927 22.622 17.6172 21.7048 19.2529 20.2704C20.8887 18.8359 22.0623 16.9487 22.6254 14.8472" stroke="#6C0206" stroke-width="2" stroke-linecap="round" stroke-linejoin="round"/>
</svg>
