<svg width="32" height="33" viewBox="0 0 32 33" fill="none" xmlns="http://www.w3.org/2000/svg">
<path d="M16 0.532715C7.164 0.532715 0 7.69672 0 16.5327C0 25.3687 7.164 32.5327 16 32.5327C24.836 32.5327 32 25.3687 32 16.5327C32 7.69672 24.836 0.532715 16 0.532715ZM23.8587 11.494L21.232 23.8674C21.0387 24.7447 20.516 24.958 19.7867 24.5447L15.7867 21.598L13.8587 23.4567C13.672 23.6967 13.3827 23.85 13.0587 23.85C13.056 23.85 13.0547 23.85 13.052 23.85L13.336 19.778L20.7493 13.082C21.0693 12.798 20.6773 12.6367 20.252 12.9207L11.0933 18.6887L7.14667 17.4567C6.29333 17.186 6.26933 16.6034 7.32667 16.1847L22.748 10.2407C23.4653 9.97938 24.0893 10.4114 23.8573 11.4954L23.8587 11.494Z" fill="white"/>
</svg>
