<svg width="32" height="31" viewBox="0 0 32 31" fill="none" xmlns="http://www.w3.org/2000/svg">
<path d="M16.0001 0.172607C7.51694 0.172607 0.640137 7.04941 0.640137 15.5326C0.640137 24.0158 7.51694 30.8926 16.0001 30.8926C24.4833 30.8926 31.3601 24.0158 31.3601 15.5326C31.3601 7.04941 24.4833 0.172607 16.0001 0.172607ZM21.9073 17.5022C21.9073 17.5022 23.2657 18.843 23.6001 19.4654C23.6097 19.4782 23.6145 19.491 23.6177 19.4974C23.7537 19.7262 23.7857 19.9038 23.7185 20.0366C23.6065 20.2574 23.2225 20.3662 23.0913 20.3758H20.6913C20.5249 20.3758 20.1761 20.3326 19.7537 20.0414C19.4289 19.8142 19.1089 19.4414 18.7969 19.0782C18.3313 18.5374 17.9281 18.0702 17.5217 18.0702C17.4701 18.0701 17.4188 18.0782 17.3697 18.0942C17.0625 18.1934 16.6689 18.6318 16.6689 19.7998C16.6689 20.1646 16.3809 20.3742 16.1777 20.3742H15.0785C14.7041 20.3742 12.7537 20.243 11.0257 18.4206C8.91054 16.1886 7.00654 11.7118 6.99054 11.6702C6.87054 11.3806 7.11854 11.2254 7.38894 11.2254H9.81294C10.1361 11.2254 10.2417 11.4222 10.3153 11.5966C10.4017 11.7998 10.7185 12.6078 11.2385 13.5166C12.0817 14.9982 12.5985 15.5998 13.0129 15.5998C13.0906 15.5989 13.167 15.5791 13.2353 15.5422C13.7761 15.2414 13.6753 13.3134 13.6513 12.9134C13.6513 12.8382 13.6497 12.051 13.3729 11.6734C13.1745 11.3998 12.8369 11.2958 12.6321 11.2574C12.715 11.143 12.8242 11.0503 12.9505 10.987C13.3217 10.8014 13.9905 10.7742 14.6545 10.7742H15.0241C15.7441 10.7838 15.9297 10.8302 16.1905 10.8958C16.7185 11.0222 16.7297 11.363 16.6833 12.5294C16.6689 12.8606 16.6545 13.235 16.6545 13.6766C16.6545 13.7726 16.6497 13.875 16.6497 13.9838C16.6337 14.5774 16.6145 15.251 17.0337 15.5278C17.0884 15.5621 17.1516 15.5804 17.2161 15.5806C17.3617 15.5806 17.8001 15.5806 18.9873 13.5438C19.3535 12.8882 19.6716 12.207 19.9393 11.5054C19.9633 11.4638 20.0337 11.3358 20.1169 11.2862C20.1783 11.2549 20.2464 11.239 20.3153 11.2398H23.1649C23.4753 11.2398 23.6881 11.2862 23.7281 11.4062C23.7985 11.5966 23.7153 12.1774 22.4145 13.939L21.8337 14.7054C20.6545 16.251 20.6545 16.3294 21.9073 17.5022Z" fill="white"/>
</svg>
